<mxfile host="Electron" agent="Mozilla/5.0 (Windows NT 10.0; Win64; x64) AppleWebKit/537.36 (KHTML, like Gecko) draw.io/25.0.2 Chrome/128.0.6613.186 Electron/32.2.5 Safari/537.36" version="25.0.2">
  <diagram id="C5RBs43oDa-KdzZeNtuy" name="Page-1">
    <mxGraphModel dx="1162" dy="1142" grid="1" gridSize="10" guides="1" tooltips="1" connect="1" arrows="1" fold="1" page="1" pageScale="1" pageWidth="827" pageHeight="1169" math="0" shadow="0">
      <root>
        <mxCell id="WIyWlLk6GJQsqaUBKTNV-0" />
        <mxCell id="WIyWlLk6GJQsqaUBKTNV-1" parent="WIyWlLk6GJQsqaUBKTNV-0" />
        <mxCell id="D1yOK2QiC3vfASPMAtOF-109" value="" style="rounded=0;whiteSpace=wrap;html=1;" parent="WIyWlLk6GJQsqaUBKTNV-1" vertex="1">
          <mxGeometry x="1027" y="140" width="420" height="546" as="geometry" />
        </mxCell>
        <mxCell id="D1yOK2QiC3vfASPMAtOF-110" value="&lt;div align=&quot;left&quot;&gt;&lt;font&gt;t = n&lt;sub&gt;t&lt;br&gt;&lt;/sub&gt;&lt;/font&gt;&lt;/div&gt;" style="text;html=1;align=left;verticalAlign=middle;whiteSpace=wrap;rounded=0;fontSize=8;movable=1;resizable=1;rotatable=1;deletable=1;editable=1;locked=0;connectable=1;" parent="WIyWlLk6GJQsqaUBKTNV-1" vertex="1">
          <mxGeometry x="1423" y="669" width="40" height="20" as="geometry" />
        </mxCell>
        <mxCell id="D1yOK2QiC3vfASPMAtOF-107" value="" style="rounded=0;whiteSpace=wrap;html=1;" parent="WIyWlLk6GJQsqaUBKTNV-1" vertex="1">
          <mxGeometry x="1014" y="120" width="420" height="553" as="geometry" />
        </mxCell>
        <mxCell id="D1yOK2QiC3vfASPMAtOF-108" value="..." style="text;html=1;align=left;verticalAlign=middle;whiteSpace=wrap;rounded=0;fontSize=8;movable=1;resizable=1;rotatable=1;deletable=1;editable=1;locked=0;connectable=1;" parent="WIyWlLk6GJQsqaUBKTNV-1" vertex="1">
          <mxGeometry x="1416" y="655" width="40" height="20" as="geometry" />
        </mxCell>
        <mxCell id="D1yOK2QiC3vfASPMAtOF-51" value="" style="rounded=0;whiteSpace=wrap;html=1;" parent="WIyWlLk6GJQsqaUBKTNV-1" vertex="1">
          <mxGeometry x="1001" y="100" width="420" height="560" as="geometry" />
        </mxCell>
        <mxCell id="D1yOK2QiC3vfASPMAtOF-82" value="" style="rounded=0;whiteSpace=wrap;html=1;" parent="WIyWlLk6GJQsqaUBKTNV-1" vertex="1">
          <mxGeometry x="1067" y="166" width="270" height="240" as="geometry" />
        </mxCell>
        <mxCell id="D1yOK2QiC3vfASPMAtOF-83" value="&lt;div style=&quot;font-size: 12px;&quot; align=&quot;left&quot;&gt;&lt;font style=&quot;font-size: 12px;&quot;&gt;agent = 1&lt;br&gt;&lt;/font&gt;&lt;/div&gt;" style="text;html=1;align=left;verticalAlign=middle;whiteSpace=wrap;rounded=0;fontSize=16;movable=1;resizable=1;rotatable=1;deletable=1;editable=1;locked=0;connectable=1;" parent="WIyWlLk6GJQsqaUBKTNV-1" vertex="1">
          <mxGeometry x="1071" y="160" width="70" height="30" as="geometry" />
        </mxCell>
        <mxCell id="D1yOK2QiC3vfASPMAtOF-84" value="Get historic information" style="rounded=1;whiteSpace=wrap;html=1;fontSize=12;glass=0;strokeWidth=1;shadow=0;" parent="WIyWlLk6GJQsqaUBKTNV-1" vertex="1">
          <mxGeometry x="1141" y="170" width="120" height="40" as="geometry" />
        </mxCell>
        <mxCell id="D1yOK2QiC3vfASPMAtOF-85" value="Create forecasts" style="rounded=1;whiteSpace=wrap;html=1;fontSize=12;glass=0;strokeWidth=1;shadow=0;" parent="WIyWlLk6GJQsqaUBKTNV-1" vertex="1">
          <mxGeometry x="1141" y="230" width="120" height="40" as="geometry" />
        </mxCell>
        <mxCell id="D1yOK2QiC3vfASPMAtOF-86" value="Create setpoints for components" style="rounded=1;whiteSpace=wrap;html=1;fontSize=12;glass=0;strokeWidth=1;shadow=0;" parent="WIyWlLk6GJQsqaUBKTNV-1" vertex="1">
          <mxGeometry x="1141" y="290" width="120" height="40" as="geometry" />
        </mxCell>
        <mxCell id="D1yOK2QiC3vfASPMAtOF-87" value="" style="endArrow=classic;html=1;rounded=0;fontSize=12;startSize=8;endSize=8;curved=1;entryX=0.5;entryY=0;entryDx=0;entryDy=0;exitX=0.5;exitY=1;exitDx=0;exitDy=0;" parent="WIyWlLk6GJQsqaUBKTNV-1" source="D1yOK2QiC3vfASPMAtOF-84" target="D1yOK2QiC3vfASPMAtOF-85" edge="1">
          <mxGeometry width="50" height="50" relative="1" as="geometry">
            <mxPoint x="1111" y="200" as="sourcePoint" />
            <mxPoint x="1151" y="200" as="targetPoint" />
          </mxGeometry>
        </mxCell>
        <mxCell id="D1yOK2QiC3vfASPMAtOF-88" value="" style="endArrow=classic;html=1;rounded=0;fontSize=12;startSize=8;endSize=8;curved=1;entryX=0.5;entryY=0;entryDx=0;entryDy=0;exitX=0.5;exitY=1;exitDx=0;exitDy=0;" parent="WIyWlLk6GJQsqaUBKTNV-1" source="D1yOK2QiC3vfASPMAtOF-85" target="D1yOK2QiC3vfASPMAtOF-86" edge="1">
          <mxGeometry width="50" height="50" relative="1" as="geometry">
            <mxPoint x="1211" y="220" as="sourcePoint" />
            <mxPoint x="1211" y="240" as="targetPoint" />
          </mxGeometry>
        </mxCell>
        <mxCell id="D1yOK2QiC3vfASPMAtOF-89" value="Create bids and &lt;br&gt;offers" style="rounded=1;whiteSpace=wrap;html=1;fontSize=12;glass=0;strokeWidth=1;shadow=0;" parent="WIyWlLk6GJQsqaUBKTNV-1" vertex="1">
          <mxGeometry x="1141" y="350" width="120" height="40" as="geometry" />
        </mxCell>
        <mxCell id="D1yOK2QiC3vfASPMAtOF-90" value="" style="endArrow=classic;html=1;rounded=0;fontSize=12;startSize=8;endSize=8;curved=1;exitX=0.5;exitY=1;exitDx=0;exitDy=0;" parent="WIyWlLk6GJQsqaUBKTNV-1" source="D1yOK2QiC3vfASPMAtOF-86" target="D1yOK2QiC3vfASPMAtOF-89" edge="1">
          <mxGeometry width="50" height="50" relative="1" as="geometry">
            <mxPoint x="1211" y="280" as="sourcePoint" />
            <mxPoint x="1211" y="300" as="targetPoint" />
          </mxGeometry>
        </mxCell>
        <mxCell id="D1yOK2QiC3vfASPMAtOF-64" value="" style="rounded=0;whiteSpace=wrap;html=1;" parent="WIyWlLk6GJQsqaUBKTNV-1" vertex="1">
          <mxGeometry x="1054" y="153" width="270" height="240" as="geometry" />
        </mxCell>
        <mxCell id="D1yOK2QiC3vfASPMAtOF-65" value="&lt;div style=&quot;font-size: 12px;&quot; align=&quot;left&quot;&gt;&lt;font style=&quot;font-size: 12px;&quot;&gt;agent = 1&lt;br&gt;&lt;/font&gt;&lt;/div&gt;" style="text;html=1;align=left;verticalAlign=middle;whiteSpace=wrap;rounded=0;fontSize=16;movable=1;resizable=1;rotatable=1;deletable=1;editable=1;locked=0;connectable=1;" parent="WIyWlLk6GJQsqaUBKTNV-1" vertex="1">
          <mxGeometry x="1061" y="150" width="70" height="30" as="geometry" />
        </mxCell>
        <mxCell id="D1yOK2QiC3vfASPMAtOF-66" value="Get historic information" style="rounded=1;whiteSpace=wrap;html=1;fontSize=12;glass=0;strokeWidth=1;shadow=0;" parent="WIyWlLk6GJQsqaUBKTNV-1" vertex="1">
          <mxGeometry x="1131" y="160" width="120" height="40" as="geometry" />
        </mxCell>
        <mxCell id="D1yOK2QiC3vfASPMAtOF-67" value="Create forecasts" style="rounded=1;whiteSpace=wrap;html=1;fontSize=12;glass=0;strokeWidth=1;shadow=0;" parent="WIyWlLk6GJQsqaUBKTNV-1" vertex="1">
          <mxGeometry x="1131" y="220" width="120" height="40" as="geometry" />
        </mxCell>
        <mxCell id="D1yOK2QiC3vfASPMAtOF-68" value="Create setpoints for components" style="rounded=1;whiteSpace=wrap;html=1;fontSize=12;glass=0;strokeWidth=1;shadow=0;" parent="WIyWlLk6GJQsqaUBKTNV-1" vertex="1">
          <mxGeometry x="1131" y="280" width="120" height="40" as="geometry" />
        </mxCell>
        <mxCell id="D1yOK2QiC3vfASPMAtOF-69" value="" style="endArrow=classic;html=1;rounded=0;fontSize=12;startSize=8;endSize=8;curved=1;entryX=0.5;entryY=0;entryDx=0;entryDy=0;exitX=0.5;exitY=1;exitDx=0;exitDy=0;" parent="WIyWlLk6GJQsqaUBKTNV-1" source="D1yOK2QiC3vfASPMAtOF-66" target="D1yOK2QiC3vfASPMAtOF-67" edge="1">
          <mxGeometry width="50" height="50" relative="1" as="geometry">
            <mxPoint x="1101" y="190" as="sourcePoint" />
            <mxPoint x="1141" y="190" as="targetPoint" />
          </mxGeometry>
        </mxCell>
        <mxCell id="D1yOK2QiC3vfASPMAtOF-70" value="" style="endArrow=classic;html=1;rounded=0;fontSize=12;startSize=8;endSize=8;curved=1;entryX=0.5;entryY=0;entryDx=0;entryDy=0;exitX=0.5;exitY=1;exitDx=0;exitDy=0;" parent="WIyWlLk6GJQsqaUBKTNV-1" source="D1yOK2QiC3vfASPMAtOF-67" target="D1yOK2QiC3vfASPMAtOF-68" edge="1">
          <mxGeometry width="50" height="50" relative="1" as="geometry">
            <mxPoint x="1201" y="210" as="sourcePoint" />
            <mxPoint x="1201" y="230" as="targetPoint" />
          </mxGeometry>
        </mxCell>
        <mxCell id="D1yOK2QiC3vfASPMAtOF-71" value="Create bids and &lt;br&gt;offers" style="rounded=1;whiteSpace=wrap;html=1;fontSize=12;glass=0;strokeWidth=1;shadow=0;" parent="WIyWlLk6GJQsqaUBKTNV-1" vertex="1">
          <mxGeometry x="1131" y="340" width="120" height="40" as="geometry" />
        </mxCell>
        <mxCell id="D1yOK2QiC3vfASPMAtOF-72" value="" style="endArrow=classic;html=1;rounded=0;fontSize=12;startSize=8;endSize=8;curved=1;exitX=0.5;exitY=1;exitDx=0;exitDy=0;" parent="WIyWlLk6GJQsqaUBKTNV-1" source="D1yOK2QiC3vfASPMAtOF-68" target="D1yOK2QiC3vfASPMAtOF-71" edge="1">
          <mxGeometry width="50" height="50" relative="1" as="geometry">
            <mxPoint x="1201" y="270" as="sourcePoint" />
            <mxPoint x="1201" y="290" as="targetPoint" />
          </mxGeometry>
        </mxCell>
        <mxCell id="D1yOK2QiC3vfASPMAtOF-54" value="" style="rounded=0;whiteSpace=wrap;html=1;" parent="WIyWlLk6GJQsqaUBKTNV-1" vertex="1">
          <mxGeometry x="1041" y="140" width="270" height="240" as="geometry" />
        </mxCell>
        <mxCell id="D1yOK2QiC3vfASPMAtOF-56" value="&lt;font style=&quot;font-size: 12px;&quot;&gt;Execute agents&lt;br&gt;&lt;/font&gt;" style="text;html=1;align=left;verticalAlign=middle;whiteSpace=wrap;rounded=0;fontSize=16;movable=1;resizable=1;rotatable=1;deletable=1;editable=1;locked=0;connectable=1;" parent="WIyWlLk6GJQsqaUBKTNV-1" vertex="1">
          <mxGeometry x="1041" y="120" width="150" height="20" as="geometry" />
        </mxCell>
        <mxCell id="D1yOK2QiC3vfASPMAtOF-57" value="Get historic information" style="rounded=1;whiteSpace=wrap;html=1;fontSize=12;glass=0;strokeWidth=1;shadow=0;" parent="WIyWlLk6GJQsqaUBKTNV-1" vertex="1">
          <mxGeometry x="1121" y="150" width="120" height="40" as="geometry" />
        </mxCell>
        <mxCell id="D1yOK2QiC3vfASPMAtOF-58" value="Create forecasts" style="rounded=1;whiteSpace=wrap;html=1;fontSize=12;glass=0;strokeWidth=1;shadow=0;" parent="WIyWlLk6GJQsqaUBKTNV-1" vertex="1">
          <mxGeometry x="1121" y="210" width="120" height="40" as="geometry" />
        </mxCell>
        <mxCell id="D1yOK2QiC3vfASPMAtOF-59" value="Create setpoints for components" style="rounded=1;whiteSpace=wrap;html=1;fontSize=12;glass=0;strokeWidth=1;shadow=0;" parent="WIyWlLk6GJQsqaUBKTNV-1" vertex="1">
          <mxGeometry x="1121" y="270" width="120" height="40" as="geometry" />
        </mxCell>
        <mxCell id="D1yOK2QiC3vfASPMAtOF-60" value="" style="endArrow=classic;html=1;rounded=0;fontSize=12;startSize=8;endSize=8;curved=1;entryX=0.5;entryY=0;entryDx=0;entryDy=0;exitX=0.5;exitY=1;exitDx=0;exitDy=0;" parent="WIyWlLk6GJQsqaUBKTNV-1" source="D1yOK2QiC3vfASPMAtOF-57" target="D1yOK2QiC3vfASPMAtOF-58" edge="1">
          <mxGeometry width="50" height="50" relative="1" as="geometry">
            <mxPoint x="1091" y="180" as="sourcePoint" />
            <mxPoint x="1131" y="180" as="targetPoint" />
          </mxGeometry>
        </mxCell>
        <mxCell id="D1yOK2QiC3vfASPMAtOF-61" value="" style="endArrow=classic;html=1;rounded=0;fontSize=12;startSize=8;endSize=8;curved=1;entryX=0.5;entryY=0;entryDx=0;entryDy=0;exitX=0.5;exitY=1;exitDx=0;exitDy=0;" parent="WIyWlLk6GJQsqaUBKTNV-1" source="D1yOK2QiC3vfASPMAtOF-58" target="D1yOK2QiC3vfASPMAtOF-59" edge="1">
          <mxGeometry width="50" height="50" relative="1" as="geometry">
            <mxPoint x="1191" y="200" as="sourcePoint" />
            <mxPoint x="1191" y="220" as="targetPoint" />
          </mxGeometry>
        </mxCell>
        <mxCell id="D1yOK2QiC3vfASPMAtOF-62" value="Create bids and &lt;br&gt;offers" style="rounded=1;whiteSpace=wrap;html=1;fontSize=12;glass=0;strokeWidth=1;shadow=0;" parent="WIyWlLk6GJQsqaUBKTNV-1" vertex="1">
          <mxGeometry x="1121" y="330" width="120" height="40" as="geometry" />
        </mxCell>
        <mxCell id="D1yOK2QiC3vfASPMAtOF-63" value="" style="endArrow=classic;html=1;rounded=0;fontSize=12;startSize=8;endSize=8;curved=1;exitX=0.5;exitY=1;exitDx=0;exitDy=0;" parent="WIyWlLk6GJQsqaUBKTNV-1" source="D1yOK2QiC3vfASPMAtOF-59" target="D1yOK2QiC3vfASPMAtOF-62" edge="1">
          <mxGeometry width="50" height="50" relative="1" as="geometry">
            <mxPoint x="1191" y="260" as="sourcePoint" />
            <mxPoint x="1191" y="280" as="targetPoint" />
          </mxGeometry>
        </mxCell>
        <mxCell id="D1yOK2QiC3vfASPMAtOF-91" value="&lt;div style=&quot;&quot; align=&quot;left&quot;&gt;&lt;font style=&quot;&quot;&gt;&lt;font style=&quot;font-size: 8px;&quot;&gt;agent a = 1&lt;/font&gt;&lt;br&gt;&lt;/font&gt;&lt;/div&gt;" style="text;html=1;align=left;verticalAlign=middle;whiteSpace=wrap;rounded=0;fontSize=16;movable=1;resizable=1;rotatable=1;deletable=1;editable=1;locked=0;connectable=1;" parent="WIyWlLk6GJQsqaUBKTNV-1" vertex="1">
          <mxGeometry x="1264" y="359" width="49" height="20" as="geometry" />
        </mxCell>
        <mxCell id="D1yOK2QiC3vfASPMAtOF-92" value="..." style="text;html=1;align=left;verticalAlign=middle;whiteSpace=wrap;rounded=0;fontSize=8;movable=1;resizable=1;rotatable=1;deletable=1;editable=1;locked=0;connectable=1;" parent="WIyWlLk6GJQsqaUBKTNV-1" vertex="1">
          <mxGeometry x="1307" y="374" width="40" height="20" as="geometry" />
        </mxCell>
        <mxCell id="D1yOK2QiC3vfASPMAtOF-93" value="&lt;div align=&quot;left&quot;&gt;&lt;font&gt;a = n&lt;sub&gt;a&lt;br&gt;&lt;/sub&gt;&lt;/font&gt;&lt;/div&gt;" style="text;html=1;align=left;verticalAlign=middle;whiteSpace=wrap;rounded=0;fontSize=8;movable=1;resizable=1;rotatable=1;deletable=1;editable=1;locked=0;connectable=1;" parent="WIyWlLk6GJQsqaUBKTNV-1" vertex="1">
          <mxGeometry x="1310" y="389" width="40" height="20" as="geometry" />
        </mxCell>
        <mxCell id="D1yOK2QiC3vfASPMAtOF-94" value="&lt;div style=&quot;&quot; align=&quot;left&quot;&gt;&lt;font style=&quot;&quot;&gt;&lt;font style=&quot;font-size: 8px;&quot;&gt;timestamp t = 1&lt;/font&gt;&lt;br&gt;&lt;/font&gt;&lt;/div&gt;" style="text;html=1;align=left;verticalAlign=middle;whiteSpace=wrap;rounded=0;fontSize=16;movable=1;resizable=1;rotatable=1;deletable=1;editable=1;locked=0;connectable=1;" parent="WIyWlLk6GJQsqaUBKTNV-1" vertex="1">
          <mxGeometry x="1360" y="639" width="61" height="20" as="geometry" />
        </mxCell>
        <mxCell id="D1yOK2QiC3vfASPMAtOF-96" value="Clear market" style="rounded=1;whiteSpace=wrap;html=1;fontSize=12;glass=0;strokeWidth=1;shadow=0;" parent="WIyWlLk6GJQsqaUBKTNV-1" vertex="1">
          <mxGeometry x="1136" y="430" width="120" height="40" as="geometry" />
        </mxCell>
        <mxCell id="D1yOK2QiC3vfASPMAtOF-97" value="Simulate grid" style="rounded=1;whiteSpace=wrap;html=1;fontSize=12;glass=0;strokeWidth=1;shadow=0;" parent="WIyWlLk6GJQsqaUBKTNV-1" vertex="1">
          <mxGeometry x="1136" y="500" width="120" height="40" as="geometry" />
        </mxCell>
        <mxCell id="D1yOK2QiC3vfASPMAtOF-98" value="" style="endArrow=classic;html=1;rounded=0;fontSize=12;startSize=8;endSize=8;curved=1;entryX=0.5;entryY=0;entryDx=0;entryDy=0;" parent="WIyWlLk6GJQsqaUBKTNV-1" target="D1yOK2QiC3vfASPMAtOF-96" edge="1">
          <mxGeometry width="50" height="50" relative="1" as="geometry">
            <mxPoint x="1196" y="405" as="sourcePoint" />
            <mxPoint x="1215.99" y="160" as="targetPoint" />
          </mxGeometry>
        </mxCell>
        <mxCell id="D1yOK2QiC3vfASPMAtOF-99" value="" style="endArrow=classic;html=1;rounded=0;fontSize=12;startSize=8;endSize=8;curved=1;exitX=0.5;exitY=1;exitDx=0;exitDy=0;" parent="WIyWlLk6GJQsqaUBKTNV-1" source="D1yOK2QiC3vfASPMAtOF-96" target="D1yOK2QiC3vfASPMAtOF-97" edge="1">
          <mxGeometry width="50" height="50" relative="1" as="geometry">
            <mxPoint x="1206" y="400" as="sourcePoint" />
            <mxPoint x="1206" y="440" as="targetPoint" />
          </mxGeometry>
        </mxCell>
        <mxCell id="D1yOK2QiC3vfASPMAtOF-100" value="&lt;br&gt;Grid constraints satisfied?" style="rhombus;whiteSpace=wrap;html=1;shadow=0;fontFamily=Helvetica;fontSize=12;align=center;strokeWidth=1;spacing=6;spacingTop=-4;" parent="WIyWlLk6GJQsqaUBKTNV-1" vertex="1">
          <mxGeometry x="1136" y="570" width="120" height="80" as="geometry" />
        </mxCell>
        <mxCell id="D1yOK2QiC3vfASPMAtOF-101" value="No" style="edgeStyle=orthogonalEdgeStyle;rounded=0;html=1;jettySize=auto;orthogonalLoop=1;fontSize=11;endArrow=block;endFill=0;endSize=8;strokeWidth=1;shadow=0;labelBackgroundColor=none;exitX=0;exitY=0.5;exitDx=0;exitDy=0;entryX=-0.001;entryY=0.163;entryDx=0;entryDy=0;entryPerimeter=0;" parent="WIyWlLk6GJQsqaUBKTNV-1" source="D1yOK2QiC3vfASPMAtOF-100" target="D1yOK2QiC3vfASPMAtOF-54" edge="1">
          <mxGeometry x="-0.8055" y="-10" relative="1" as="geometry">
            <mxPoint as="offset" />
            <mxPoint x="1115.99" y="390" as="sourcePoint" />
            <mxPoint x="1145.9899999999998" y="380" as="targetPoint" />
          </mxGeometry>
        </mxCell>
        <mxCell id="D1yOK2QiC3vfASPMAtOF-102" value="" style="endArrow=classic;html=1;rounded=0;fontSize=12;startSize=8;endSize=8;curved=1;entryX=0.5;entryY=0;entryDx=0;entryDy=0;exitX=0.5;exitY=1;exitDx=0;exitDy=0;" parent="WIyWlLk6GJQsqaUBKTNV-1" source="D1yOK2QiC3vfASPMAtOF-97" target="D1yOK2QiC3vfASPMAtOF-100" edge="1">
          <mxGeometry width="50" height="50" relative="1" as="geometry">
            <mxPoint x="1046" y="300" as="sourcePoint" />
            <mxPoint x="1045.8" y="330" as="targetPoint" />
          </mxGeometry>
        </mxCell>
        <mxCell id="D1yOK2QiC3vfASPMAtOF-104" value="Yes" style="edgeStyle=orthogonalEdgeStyle;rounded=0;html=1;jettySize=auto;orthogonalLoop=1;fontSize=11;endArrow=block;endFill=0;endSize=8;strokeWidth=1;shadow=0;labelBackgroundColor=none;exitX=1;exitY=0.5;exitDx=0;exitDy=0;entryX=0;entryY=0.5;entryDx=0;entryDy=0;" parent="WIyWlLk6GJQsqaUBKTNV-1" source="D1yOK2QiC3vfASPMAtOF-100" target="D1yOK2QiC3vfASPMAtOF-106" edge="1">
          <mxGeometry x="-0.3333" y="10" relative="1" as="geometry">
            <mxPoint as="offset" />
            <mxPoint x="1146" y="620" as="sourcePoint" />
            <mxPoint x="1051" y="189" as="targetPoint" />
          </mxGeometry>
        </mxCell>
        <mxCell id="D1yOK2QiC3vfASPMAtOF-106" value="Next timestamp" style="rounded=1;whiteSpace=wrap;html=1;fontSize=12;glass=0;strokeWidth=1;shadow=0;" parent="WIyWlLk6GJQsqaUBKTNV-1" vertex="1">
          <mxGeometry x="1301" y="595" width="110" height="30" as="geometry" />
        </mxCell>
      </root>
    </mxGraphModel>
  </diagram>
</mxfile>
